<svg width="18" height="20" viewBox="0 0 18 20" fill="none" xmlns="http://www.w3.org/2000/svg">
<path d="M8 0C8.13333 0 8.25433 0.00833319 8.363 0.0249999C8.47167 0.0416665 8.584 0.075 8.7 0.125L14.7 2.375C15.0833 2.525 15.396 2.76667 15.638 3.1C15.88 3.43333 16.0007 3.80833 16 4.225V7.35C16 7.63333 15.9043 7.871 15.713 8.063C15.5217 8.255 15.284 8.35067 15 8.35C14.716 8.34933 14.4787 8.25333 14.288 8.062C14.0973 7.87067 14.0013 7.63333 14 7.35V4.25L8 2L2 4.25V8.95C2 9.78333 2.121 10.6167 2.363 11.45C2.605 12.2833 2.93833 13.075 3.363 13.825C3.78767 14.575 4.30433 15.25 4.913 15.85C5.52167 16.45 6.184 16.9417 6.9 17.325C7.15 17.4583 7.32933 17.65 7.438 17.9C7.54667 18.15 7.55067 18.4 7.45 18.65C7.33333 18.9167 7.146 19.1 6.888 19.2C6.63 19.3 6.37567 19.2833 6.125 19.15C4.24167 18.2167 2.75 16.8083 1.65 14.925C0.55 13.0417 0 11.05 0 8.95V4.225C0 3.80833 0.121 3.43333 0.363 3.1C0.605 2.76667 0.917333 2.525 1.3 2.375L7.3 0.125C7.41667 0.075 7.53333 0.0416665 7.65 0.0249999C7.76667 0.00833319 7.88333 0 8 0ZM13 19.85C11.6167 19.85 10.4377 19.3623 9.463 18.387C8.48833 17.4117 8.00067 16.2327 8 14.85C7.99933 13.4673 8.487 12.2883 9.463 11.313C10.439 10.3377 11.618 9.85 13 9.85C14.382 9.85 15.5613 10.3377 16.538 11.313C17.5147 12.2883 18.002 13.4673 18 14.85C17.998 16.2327 17.5103 17.412 16.537 18.388C15.5637 19.364 14.3847 19.8513 13 19.85ZM13 14.85C13.4167 14.85 13.771 14.7043 14.063 14.413C14.355 14.1217 14.5007 13.7673 14.5 13.35C14.4993 12.9327 14.3537 12.5787 14.063 12.288C13.7723 11.9973 13.418 11.8513 13 11.85C12.582 11.8487 12.228 11.9947 11.938 12.288C11.648 12.5813 11.502 12.9353 11.5 13.35C11.498 13.7647 11.644 14.119 11.938 14.413C12.232 14.707 12.586 14.8527 13 14.85ZM13 17.85C13.4167 17.85 13.8083 17.7707 14.175 17.612C14.5417 17.4533 14.8667 17.2243 15.15 16.925C15.2333 16.825 15.2667 16.7127 15.25 16.588C15.2333 16.4633 15.1583 16.3673 15.025 16.3C14.7083 16.15 14.3793 16.0377 14.038 15.963C13.6967 15.8883 13.3507 15.8507 13 15.85C12.6493 15.8493 12.3037 15.887 11.963 15.963C11.6223 16.039 11.293 16.1513 10.975 16.3C10.8417 16.3667 10.7667 16.4627 10.75 16.588C10.7333 16.7133 10.7667 16.8257 10.85 16.925C11.1333 17.225 11.4583 17.4543 11.825 17.613C12.1917 17.7717 12.5833 17.8507 13 17.85Z" fill="#233D62"/>
</svg>
