<svg width="22" height="22" viewBox="0 0 22 22" fill="none" xmlns="http://www.w3.org/2000/svg">
<path d="M4 7C5.06087 7 6.07828 7.42143 6.82843 8.17157C7.57857 8.92172 8 9.93913 8 11C8 12.0609 7.57857 13.0783 6.82843 13.8284C6.07828 14.5786 5.06087 15 4 15C2.93913 15 1.92172 14.5786 1.17157 13.8284C0.421427 13.0783 0 12.0609 0 11C0 9.93913 0.421427 8.92172 1.17157 8.17157C1.92172 7.42143 2.93913 7 4 7ZM11 0C12.0609 0 13.0783 0.421427 13.8284 1.17157C14.5786 1.92172 15 2.93913 15 4C15 5.06087 14.5786 6.07828 13.8284 6.82843C13.0783 7.57857 12.0609 8 11 8C9.93913 8 8.92172 7.57857 8.17157 6.82843C7.42143 6.07828 7 5.06087 7 4C7 2.93913 7.42143 1.92172 8.17157 1.17157C8.92172 0.421427 9.93913 0 11 0ZM11 14C12.0609 14 13.0783 14.4214 13.8284 15.1716C14.5786 15.9217 15 16.9391 15 18C15 19.0609 14.5786 20.0783 13.8284 20.8284C13.0783 21.5786 12.0609 22 11 22C9.93913 22 8.92172 21.5786 8.17157 20.8284C7.42143 20.0783 7 19.0609 7 18C7 16.9391 7.42143 15.9217 8.17157 15.1716C8.92172 14.4214 9.93913 14 11 14ZM18 7C19.0609 7 20.0783 7.42143 20.8284 8.17157C21.5786 8.92172 22 9.93913 22 11C22 12.0609 21.5786 13.0783 20.8284 13.8284C20.0783 14.5786 19.0609 15 18 15C16.9391 15 15.9217 14.5786 15.1716 13.8284C14.4214 13.0783 14 12.0609 14 11C14 9.93913 14.4214 8.92172 15.1716 8.17157C15.9217 7.42143 16.9391 7 18 7ZM18 9C17.4696 9 16.9609 9.21071 16.5858 9.58579C16.2107 9.96086 16 10.4696 16 11C16 11.5304 16.2107 12.0391 16.5858 12.4142C16.9609 12.7893 17.4696 13 18 13C18.5304 13 19.0391 12.7893 19.4142 12.4142C19.7893 12.0391 20 11.5304 20 11C20 10.4696 19.7893 9.96086 19.4142 9.58579C19.0391 9.21071 18.5304 9 18 9ZM11 16C10.4696 16 9.96086 16.2107 9.58579 16.5858C9.21071 16.9609 9 17.4696 9 18C9 18.5304 9.21071 19.0391 9.58579 19.4142C9.96086 19.7893 10.4696 20 11 20C11.5304 20 12.0391 19.7893 12.4142 19.4142C12.7893 19.0391 13 18.5304 13 18C13 17.4696 12.7893 16.9609 12.4142 16.5858C12.0391 16.2107 11.5304 16 11 16ZM11 2C10.4696 2 9.96086 2.21071 9.58579 2.58579C9.21071 2.96086 9 3.46957 9 4C9 4.53043 9.21071 5.03914 9.58579 5.41421C9.96086 5.78929 10.4696 6 11 6C11.5304 6 12.0391 5.78929 12.4142 5.41421C12.7893 5.03914 13 4.53043 13 4C13 3.46957 12.7893 2.96086 12.4142 2.58579C12.0391 2.21071 11.5304 2 11 2Z" fill="#7C3AED"/>
</svg>
