<svg width="18" height="13" viewBox="0 0 18 13" fill="none" xmlns="http://www.w3.org/2000/svg">
<path d="M7 2C7 0.896875 7.89687 0 9 0C10.1031 0 11 0.896875 11 2C11 3.10313 10.1031 4 9 4C7.89687 4 7 3.10313 7 2ZM5.5 8.5C5.5 6.56563 7.06563 5 9 5C10.9344 5 12.5 6.56563 12.5 8.5V8.75C12.5 9.16562 12.1656 9.5 11.75 9.5H6.25C5.83437 9.5 5.5 9.16562 5.5 8.75V8.5ZM12.25 2.5C12.25 1.53437 13.0344 0.75 14 0.75C14.9656 0.75 15.75 1.53437 15.75 2.5C15.75 3.46563 14.9656 4.25 14 4.25C13.0344 4.25 12.25 3.46563 12.25 2.5ZM13.1 5.6375C13.3844 5.54688 13.6875 5.5 14 5.5C15.6562 5.5 17 6.84375 17 8.5V8.83438C17 9.20312 16.7 9.5 16.3344 9.5H13.8719C13.9563 9.26562 14 9.0125 14 8.75V8.5C14 7.43437 13.6688 6.44687 13.1 5.6375ZM4.9 5.6375C4.33125 6.45 4 7.43437 4 8.5V8.75C4 9.0125 4.04375 9.26562 4.12813 9.5H1.66563C1.3 9.5 1 9.2 1 8.83438V8.5C1 6.84375 2.34375 5.5 4 5.5C4.3125 5.5 4.61562 5.54688 4.9 5.6375ZM2.25 2.5C2.25 1.53437 3.03437 0.75 4 0.75C4.96562 0.75 5.75 1.53437 5.75 2.5C5.75 3.46563 4.96562 4.25 4 4.25C3.03437 4.25 2.25 3.46563 2.25 2.5ZM0 11.75C0 11.3344 0.334375 11 0.75 11H17.25C17.6656 11 18 11.3344 18 11.75C18 12.1656 17.6656 12.5 17.25 12.5H0.75C0.334375 12.5 0 12.1656 0 11.75Z" fill="#E11D48"/>
</svg>
