<svg width="22" height="22" viewBox="0 0 22 22" fill="none" xmlns="http://www.w3.org/2000/svg">
<path fill-rule="evenodd" clip-rule="evenodd" d="M16.1558 5.06605e-08H16.9168C17.7888 5.06605e-08 18.5168 0 19.0968 0.078C19.7068 0.16 20.2628 0.34 20.7098 0.786C21.1568 1.232 21.3398 1.787 21.4218 2.398C21.4998 2.976 21.4998 3.702 21.4998 4.571V5.331C21.4998 6.381 21.4998 7.118 21.2198 7.792C20.9398 8.466 20.4178 8.987 19.6728 9.729L19.5728 9.829L16.9028 12.491L16.9958 12.634C17.3898 13.242 17.7088 13.734 17.9388 14.159C18.1768 14.599 18.3468 15.012 18.4148 15.469C18.5216 16.2076 18.4248 16.9614 18.1348 17.649C18.0278 17.907 17.8428 18.176 17.6528 18.421C17.4528 18.679 17.2088 18.959 16.9468 19.244C16.3917 19.8379 15.8243 20.42 15.2448 20.99L15.1538 21.08C14.4338 21.798 13.1858 21.566 12.8018 20.603C12.5748 20.031 12.4818 19.803 12.3668 19.593C12.2601 19.3981 12.1373 19.2125 11.9998 19.038C11.8538 18.851 11.6838 18.678 11.2598 18.257L10.7548 17.814L10.7348 17.795C10.6403 17.8078 10.5451 17.8138 10.4498 17.813C9.81776 17.813 9.29676 17.55 8.80576 17.176C8.34176 16.823 7.82576 16.309 7.20976 15.695L5.76276 14.252C5.14676 13.638 4.63176 13.124 4.27676 12.661C3.90276 12.171 3.63676 11.651 3.63676 11.019C3.63743 10.9057 3.6461 10.7933 3.66276 10.682L2.83276 9.855L2.74576 9.768C2.34215 9.37609 1.86219 9.07144 1.33576 8.873L0.957764 8.723C0.724085 8.63069 0.517053 8.48168 0.355331 8.2894C0.193609 8.09711 0.0822823 7.86761 0.0313876 7.62157C-0.0195072 7.37553 -0.00837011 7.12069 0.063795 6.88002C0.13596 6.63936 0.266884 6.42044 0.444764 6.243L0.451764 6.235C1.02368 5.65733 1.60747 5.09154 2.20276 4.538C2.48976 4.277 2.77076 4.034 3.02776 3.835C3.27476 3.645 3.54476 3.46 3.80176 3.354C4.4912 3.06542 5.24602 2.96934 5.98576 3.076C6.44276 3.143 6.85576 3.312 7.29676 3.55C7.72276 3.78 8.21676 4.097 8.82676 4.49L8.97476 4.585L11.6468 1.92L11.7468 1.821C12.4908 1.078 13.0128 0.557 13.6888 0.278C14.3648 -0.000999957 15.1018 5.06605e-08 16.1558 5.06605e-08ZM7.88676 5.669C7.32676 5.309 6.92376 5.053 6.58576 4.87C6.22576 4.677 5.98576 4.592 5.76576 4.56C5.29477 4.49285 4.81438 4.55471 4.37576 4.739C4.22196 4.81784 4.07712 4.91305 3.94376 5.023C3.73176 5.186 3.48476 5.399 3.21376 5.646C2.63228 6.1867 2.06215 6.73948 1.50376 7.304L1.49976 7.31V7.317L1.50276 7.325L1.51076 7.329L1.89376 7.481L2.02176 7.532C2.67942 7.80288 3.27944 8.19657 3.78976 8.692C3.81776 8.718 3.84476 8.745 3.88776 8.789L4.36576 9.265C4.4311 9.18367 4.4991 9.103 4.56976 9.023C4.89176 8.655 5.30476 8.243 5.78376 7.766L7.88676 5.669ZM12.2038 17.089L12.2848 17.16L12.3368 17.212C12.7268 17.602 12.9698 17.842 13.1808 18.112C13.3681 18.352 13.5351 18.6053 13.6818 18.872C13.8418 19.163 13.9658 19.47 14.1588 19.955L14.1788 19.935C14.7449 19.3783 15.2994 18.8099 15.8418 18.23C16.0898 17.96 16.3038 17.713 16.4668 17.502C16.5776 17.3698 16.6732 17.2256 16.7518 17.072C16.9363 16.6359 16.9981 16.1577 16.9308 15.689C16.8988 15.471 16.8138 15.232 16.6208 14.874C16.4368 14.536 16.1798 14.134 15.8168 13.574L13.7078 15.676C13.2178 16.164 12.7958 16.585 12.4208 16.909C12.3495 16.9703 12.2771 17.0303 12.2038 17.089ZM16.2968 1.5C15.0448 1.5 14.6268 1.513 14.2608 1.664C13.8958 1.815 13.5908 2.1 12.7058 2.983L6.85876 8.812C6.36076 9.309 5.98276 9.686 5.69876 10.012C5.41176 10.337 5.26576 10.561 5.19476 10.737C5.1561 10.826 5.13635 10.922 5.13676 11.019C5.13676 11.189 5.19576 11.393 5.46876 11.749C5.75376 12.123 6.19676 12.566 6.85876 13.227L7.01576 13.383L8.54576 11.857C8.68673 11.7164 8.87775 11.6376 9.07682 11.6379C9.27589 11.6382 9.4667 11.7175 9.60726 11.8585C9.74783 11.9995 9.82664 12.1905 9.82636 12.3896C9.82608 12.5886 9.74673 12.7794 9.60576 12.92L8.07876 14.442L8.23176 14.596C8.89476 15.256 9.33876 15.697 9.71376 15.982C10.0718 16.254 10.2768 16.313 10.4498 16.313C10.5387 16.3137 10.6269 16.2974 10.7098 16.265C10.8848 16.201 11.1078 16.061 11.4398 15.775C11.7698 15.489 12.1558 15.105 12.6668 14.595L18.5138 8.767C19.3988 7.884 19.6838 7.581 19.8348 7.217C19.9858 6.853 19.9998 6.439 19.9998 5.19V4.623C19.9998 3.689 19.9978 3.063 19.9348 2.598C19.8748 2.155 19.7728 1.969 19.6508 1.848C19.5288 1.727 19.3428 1.624 18.8968 1.564C18.4288 1.502 17.8018 1.5 16.8648 1.5H16.2968ZM15.4128 6.074C15.1887 5.85105 14.8854 5.72589 14.5693 5.72589C14.2531 5.72589 13.9499 5.85105 13.7258 6.074C13.6151 6.1837 13.5273 6.31424 13.4673 6.45807C13.4074 6.6019 13.3765 6.75618 13.3765 6.912C13.3765 7.06782 13.4074 7.2221 13.4673 7.36593C13.5273 7.50976 13.6151 7.6403 13.7258 7.75C13.9499 7.97295 14.2531 8.09811 14.5693 8.09811C14.8854 8.09811 15.1887 7.97295 15.4128 7.75C15.5234 7.6403 15.6113 7.50976 15.6712 7.36593C15.7311 7.2221 15.762 7.06782 15.762 6.912C15.762 6.75618 15.7311 6.6019 15.6712 6.45807C15.6113 6.31424 15.5234 6.1837 15.4128 6.074ZM12.6668 5.01C13.1721 4.50645 13.8564 4.22371 14.5698 4.22371C15.2831 4.22371 15.9674 4.50645 16.4728 5.01C16.7233 5.25906 16.9221 5.55518 17.0577 5.88134C17.1934 6.2075 17.2632 6.55726 17.2632 6.9105C17.2632 7.26374 17.1934 7.6135 17.0577 7.93966C16.9221 8.26582 16.7233 8.56194 16.4728 8.811C15.9674 9.31455 15.2831 9.59729 14.5698 9.59729C13.8564 9.59729 13.1721 9.31455 12.6668 8.811C12.4164 8.56196 12.2178 8.2659 12.0822 7.93983C11.9466 7.61376 11.8768 7.26412 11.8768 6.911C11.8768 6.55788 11.9466 6.20823 12.0822 5.88217C12.2178 5.5561 12.4164 5.25904 12.6668 5.01Z" fill="#2563EB"/>
</svg>
