<svg width="20" height="21" viewBox="0 0 20 21" fill="none" xmlns="http://www.w3.org/2000/svg">
<path d="M15.7392 12.5C16.8392 12.5 17.8392 12.9 18.5392 13.7L19.7392 12.5V16.5H15.7392L17.5392 14.7C17.0392 14.3 16.4392 14 15.7392 14C14.3392 14 13.2392 15.1 13.2392 16.5C13.2392 17.9 14.3392 19 15.7392 19C16.5392 19 17.2392 18.6 17.7392 18H19.4392C18.8392 19.5 17.4392 20.5 15.7392 20.5C13.5392 20.5 11.7392 18.7 11.7392 16.5C11.7392 14.3 13.5392 12.5 15.7392 12.5ZM9.23923 16.5C9.23923 15.4 9.53923 14.4 9.93923 13.5H9.73923C7.83923 13.5 6.23923 11.9 6.23923 10C6.23923 8.1 7.83923 6.5 9.73923 6.5C11.6392 6.5 13.2392 8.1 13.2392 10C13.2392 10.2 13.2392 10.4 13.1392 10.5C13.9392 10.2 14.7392 10 15.7392 10C16.2392 10 16.7392 10.1 17.2392 10.2V10C17.2392 9.7 17.2392 9.3 17.1392 9L19.2392 7.4C19.4392 7.2 19.4392 7 19.3392 6.8L17.3392 3.3C17.2392 3 17.0392 3 16.7392 3L14.2392 4C13.7392 3.6 13.1392 3.3 12.5392 3L12.1392 0.3C12.2392 0.2 11.9392 0 11.7392 0H7.73923C7.53923 0 7.23923 0.2 7.23923 0.4L6.83923 3.1C6.23923 3.3 5.73923 3.7 5.13923 4L2.73923 3C2.43923 3 2.23923 3 2.03923 3.3L0.0392305 6.8C-0.0607695 7 0.0392305 7.2 0.239231 7.4L2.33923 9C2.33923 9.3 2.23923 9.7 2.23923 10C2.23923 10.3 2.23923 10.7 2.33923 11L0.239231 12.7C0.0392305 12.9 0.0392306 13.1 0.139231 13.3L2.13923 16.8C2.23923 17 2.43923 17 2.73923 17L5.23923 16C5.73923 16.4 6.33923 16.7 6.93923 17L7.33923 19.7C7.33923 19.9 7.53923 20.1 7.83923 20.1H10.3392C9.63923 19 9.23923 17.8 9.23923 16.5Z" fill="#0D9488"/>
</svg>
